<svg width="25" height="22" viewBox="0 0 25 22" fill="none" xmlns="http://www.w3.org/2000/svg">
<path d="M22.7273 0H2.27273C1.02273 0 0 1.1 0 2.44444V17.1111C0 18.4556 1.02273 19.5556 2.27273 19.5556H7.95455V22H17.0455V19.5556H22.7273C23.9773 19.5556 24.9886 18.4556 24.9886 17.1111L25 2.44444C25 1.1 23.9773 0 22.7273 0ZM22.7273 17.1111H2.27273V2.44444H22.7273V17.1111ZM20.4545 6.11111H7.95455V8.55556H20.4545V6.11111ZM20.4545 11H7.95455V13.4444H20.4545V11ZM6.81818 6.11111H4.54545V8.55556H6.81818V6.11111ZM6.81818 11H4.54545V13.4444H6.81818V11Z" fill="#707070"/>
</svg>
