<svg width="25" height="26" viewBox="0 0 25 26" fill="none" xmlns="http://www.w3.org/2000/svg">
<path d="M22.0627 14.111C22.1109 13.7093 22.1431 13.2914 22.1431 12.8574C22.1431 12.4235 22.1109 12.0056 22.0467 11.6038L24.7628 9.48237C25.0039 9.2895 25.0682 8.93592 24.9235 8.6627L22.352 4.21081C22.1913 3.92152 21.8538 3.82509 21.5645 3.92152L18.3662 5.20726C17.6912 4.69297 16.984 4.2751 16.1965 3.95366L15.7144 0.546441C15.6661 0.225005 15.3929 0 15.0715 0H9.92851C9.60707 0 9.34993 0.225005 9.30171 0.546441L8.81956 3.95366C8.03204 4.2751 7.30881 4.70904 6.64986 5.20726L3.45157 3.92152C3.16228 3.80902 2.82477 3.92152 2.66406 4.21081L0.0925661 8.6627C-0.0681519 8.952 -0.00386448 9.2895 0.253284 9.48237L2.96942 11.6038C2.90513 12.0056 2.85692 12.4396 2.85692 12.8574C2.85692 13.2753 2.88906 13.7093 2.95335 14.111L0.237212 16.2325C-0.00386487 16.4254 -0.0681519 16.779 0.0764943 17.0522L2.64798 21.5041C2.8087 21.7934 3.14621 21.8898 3.4355 21.7934L6.63379 20.5076C7.30881 21.0219 8.01597 21.4398 8.80348 21.7612L9.28564 25.1684C9.34993 25.4899 9.60707 25.7149 9.92851 25.7149H15.0715C15.3929 25.7149 15.6661 25.4899 15.6983 25.1684L16.1804 21.7612C16.968 21.4398 17.6912 21.0058 18.3501 20.5076L21.5484 21.7934C21.8377 21.9059 22.1752 21.7934 22.3359 21.5041L24.9074 17.0522C25.0682 16.7629 25.0039 16.4254 24.7467 16.2325L22.0627 14.111ZM12.5 17.679C9.84815 17.679 7.67846 15.5093 7.67846 12.8574C7.67846 10.2056 9.84815 8.0359 12.5 8.0359C15.1518 8.0359 17.3215 10.2056 17.3215 12.8574C17.3215 15.5093 15.1518 17.679 12.5 17.679Z" fill="#707070"/>
</svg>
